<svg enable-background="new 0 0 100 100" viewBox="0 0 100 125" xmlns="http://www.w3.org/2000/svg"><path d="m91.7 25.9c-8.6-14.8-24.6-24-41.7-24-8.4 0-16.7 2.2-24 6.5-11.2 6.3-19.2 16.7-22.5 29.1-3.3 12.5-1.6 25.4 4.8 36.6l1-.6-1 .6c6.4 11.1 16.8 19.1 29.2 22.4 4.1 1.1 8.4 1.7 12.5 1.7 8.3 0 16.6-2.2 24-6.5 7.3-4.2 13.4-10.3 17.6-17.6 8.6-14.9 8.6-33.3.1-48.2zm-86 12.2c3.2-11.8 10.8-21.7 21.4-27.8 6.7-3.8 14.2-5.9 21.8-6.1v18.6c0 .6.1 1.1.4 1.6.4.6.9 1 1.6 1 .9 0 2-.6 2.5-1.2 0 0 .3-.3.8-.3 1.1 0 2 1.3 2 2.8s-.9 2.8-2 2.8c-.5 0-.8-.3-.8-.3-.6-.6-1.6-1.3-2.6-1.3-1.1 0-2 1.1-2 2.5v19.1l-16.3 9.4c-.1 0-.1.1-.1.1 0-.2 0-.5.1-.8 0-.1.4-1.4-.4-2.6-1.2-2-4.1-2.5-6.5-1.2-2.4 1.4-3.4 4.2-2.2 6.2.7 1.3 2 1.6 2.1 1.6.3.1.5.2.7.3 0 0-.1.1-.1.1l-16.4 9.3c-5.6-10.3-7.1-22.3-4-33.8zm67.2 51.6c-10.6 6.1-23 7.8-34.8 4.6-11.4-3.1-21.1-10.3-27.2-20.4l16.3-9.4c1.2-.7 1.8-2 1.2-3-.4-.8-1.5-1.4-2.4-1.6 0 0-.4-.1-.7-.5-.5-.9.1-2.3 1.4-3.1 1.3-.7 2.8-.6 3.4.3.2.4.1.8.1.8-.2.8-.3 2.1.2 2.8.3.5.9.9 1.6.9.5 0 1.1-.1 1.6-.4l16.4-9.4 16.5 9.5c.1 0 .1.1.1.1-.2.1-.4.3-.7.3-.1 0-1.4.4-2.1 1.6-.5.9-.6 1.9-.3 3 .4 1.3 1.3 2.5 2.6 3.2 1.1.6 2.4.9 3.6.7 1.3-.2 2.3-.9 2.9-1.9.7-1.3.4-2.5.4-2.6-.1-.3-.1-.5-.1-.8 0 0 .1 0 .2.1l16.1 9.3c-4.1 6.6-9.6 12.1-16.3 15.9zm17.4-17.8-16.1-9.3c-1.2-.7-2.6-.5-3.2.5-.5.8-.4 2-.2 2.8 0 0 .1.4-.1.8-.3.6-.9.7-1.3.8-.7.1-1.4-.1-2.1-.5-.8-.4-1.3-1.1-1.5-1.9-.1-.3-.1-.8.1-1.2s.7-.5.7-.5c.8-.2 1.9-.8 2.4-1.6.6-1 0-2.3-1.2-3l-16.5-9.5v-19.1c0-.1 0-.1 0-.2.2.1.4.3.6.4.1.1 1 1 2.5 1 2.3 0 4.2-2.3 4.2-5 0-2.8-1.9-5-4.2-5-1.5 0-2.4.9-2.5 1-.2.2-.4.3-.6.4 0 0 0-.1 0-.2v-18.4c15.7.4 30.4 9.1 38.4 22.9s8.2 30.9.6 44.8z"/><g font-family="'Helvetica Neue', Helvetica, Arial-Unicode, Arial, Sans-serif" font-size="5" font-weight="bold"><text y="115">Created by Libby Ventura</text><text y="120">from the Noun Project</text></g></svg>